<?xml version="1.0" encoding="UTF-8"?>
<svg xmlns="http://www.w3.org/2000/svg" version="1.1" xmlns:xlink="http://www.w3.org/1999/xlink" viewBox="0 0 3000 1350">
  <defs>
    <style>
      .cls-1 {
        fill: url(#linear-gradient-15);
      }

      .cls-2 {
        fill: url(#linear-gradient-13);
      }

      .cls-3 {
        fill: url(#linear-gradient-2);
      }

      .cls-4 {
        fill: url(#linear-gradient-10);
      }

      .cls-5 {
        fill: url(#linear-gradient-12);
      }

      .cls-6 {
        fill: #fff;
      }

      .cls-7 {
        fill: none;
      }

      .cls-8 {
        fill: url(#linear-gradient-4);
      }

      .cls-9 {
        fill: url(#linear-gradient-3);
      }

      .cls-10 {
        fill: url(#linear-gradient-5);
      }

      .cls-11 {
        fill: url(#linear-gradient-8);
      }

      .cls-12 {
        fill: url(#linear-gradient-14);
      }

      .cls-13 {
        fill: #ffcc5e;
      }

      .cls-14 {
        fill: url(#linear-gradient-17);
      }

      .cls-15 {
        fill: url(#linear-gradient-7);
      }

      .cls-16 {
        fill: url(#linear-gradient-9);
      }

      .cls-17 {
        fill: url(#linear-gradient-11);
      }

      .cls-18 {
        fill: #00073c;
      }

      .cls-19 {
        fill: url(#linear-gradient-6);
      }

      .cls-20 {
        fill: url(#linear-gradient-16);
      }

      .cls-21 {
        fill: url(#linear-gradient);
      }

      .cls-22 {
        fill: #ff0;
      }

      .cls-23 {
        fill: url(#linear-gradient-18);
      }
    </style>
    <linearGradient id="linear-gradient" x1="1884.4" y1="247.7" x2="1884.4" y2="176.8" gradientUnits="userSpaceOnUse">
      <stop offset="0" stop-color="#fff" stop-opacity="0"/>
      <stop offset=".5" stop-color="#fff"/>
      <stop offset="1" stop-color="#fff" stop-opacity="0"/>
    </linearGradient>
    <linearGradient id="linear-gradient-2" x1="1081" y1="-3201.2" x2="1081" y2="-3242.7" gradientTransform="translate(-1337.5 -868.7) rotate(90)" xlink:href="#linear-gradient"/>
    <linearGradient id="linear-gradient-3" x1="246.2" y1="1242.8" x2="246.2" y2="1171.9" xlink:href="#linear-gradient"/>
    <linearGradient id="linear-gradient-4" x1="2076.1" y1="-1563.1" x2="2076.1" y2="-1604.5" gradientTransform="translate(-1337.5 -868.7) rotate(90)" xlink:href="#linear-gradient"/>
    <linearGradient id="linear-gradient-5" x1="2686.3" y1="766" x2="2686.3" y2="695.2" xlink:href="#linear-gradient"/>
    <linearGradient id="linear-gradient-6" x1="1599.3" y1="-4003.1" x2="1599.3" y2="-4044.5" gradientTransform="translate(-1337.5 -868.7) rotate(90)" xlink:href="#linear-gradient"/>
    <linearGradient id="linear-gradient-7" x1="2761.2" y1="334.2" x2="2761.2" y2="263.4" xlink:href="#linear-gradient"/>
    <linearGradient id="linear-gradient-8" x1="1167.6" y1="-4078" x2="1167.6" y2="-4119.5" gradientTransform="translate(-1337.5 -868.7) rotate(90)" xlink:href="#linear-gradient"/>
    <linearGradient id="linear-gradient-9" x1="1140.7" y1="552" x2="1140.7" y2="481.2" xlink:href="#linear-gradient"/>
    <linearGradient id="linear-gradient-10" x1="1385.3" y1="-2457.5" x2="1385.3" y2="-2499" gradientTransform="translate(-1337.5 -868.7) rotate(90)" xlink:href="#linear-gradient"/>
    <linearGradient id="linear-gradient-11" x1="697.9" y1="1059.5" x2="697.9" y2="988.7" xlink:href="#linear-gradient"/>
    <linearGradient id="linear-gradient-12" x1="1892.9" y1="-2014.7" x2="1892.9" y2="-2056.1" gradientTransform="translate(-1337.5 -868.7) rotate(90)" xlink:href="#linear-gradient"/>
    <linearGradient id="linear-gradient-13" x1="133.8" y1="315.1" x2="133.8" y2="270.5" xlink:href="#linear-gradient"/>
    <linearGradient id="linear-gradient-14" x1="1161.6" y1="-1458.3" x2="1161.6" y2="-1484.4" gradientTransform="translate(-1337.5 -868.7) rotate(90)" xlink:href="#linear-gradient"/>
    <linearGradient id="linear-gradient-15" x1="2941" y1="139.9" x2="2941" y2="111.9" xlink:href="#linear-gradient"/>
    <linearGradient id="linear-gradient-16" x1="994.6" y1="-4270.4" x2="994.6" y2="-4286.8" gradientTransform="translate(-1337.5 -868.7) rotate(90)" xlink:href="#linear-gradient"/>
    <linearGradient id="linear-gradient-17" x1="2023" y1="970.6" x2="2023" y2="913.8" xlink:href="#linear-gradient"/>
    <linearGradient id="linear-gradient-18" x1="1811" y1="-3344" x2="1811" y2="-3377.2" gradientTransform="translate(-1337.5 -868.7) rotate(90)" xlink:href="#linear-gradient"/>
  </defs>
  <!-- Generator: Adobe Illustrator 28.6.0, SVG Export Plug-In . SVG Version: 1.2.0 Build 709)  -->
  <g>
    <g id="Layer_1">
      <path class="cls-13" d="M2998.6,803.2c0,0,0-.2,0-.3-.2-.2-.4-.4-.6-.6l-9-12.1c0,0,0-.2,0-.3-.2-.2-.5-.4-.7-.7l-9-12c0-.1,0-.2,0-.3-.3-.2-.5-.5-.8-.7l-8.9-11.9c0-.1,0-.2,0-.3-.3-.3-.5-.5-.8-.8l-8.8-11.9c0-.1,0-.2,0-.4-.3-.3-.6-.6-.9-.8l-8.8-11.8c0-.1,0-.3,0-.4-.3-.3-.6-.6-.9-.9l-8.7-11.7c0-.1,0-.3,0-.4-.3-.3-.7-.6-1-.9l-8.7-11.6c0-.1,0-.3,0-.4-.4-.3-.7-.7-1.1-1l-8.6-11.5c0-.1,0-.3,0-.5-.4-.3-.8-.7-1.1-1.1l-8.5-11.4c0-.2,0-.3,0-.5-.4-.4-.8-.8-1.2-1.2l-8.5-11.3c0-.2,0-.3,0-.5-.4-.4-.8-.8-1.3-1.2l-8.4-11.3c0-.2,0-.3,0-.5-.5-.4-.9-.8-1.3-1.3l-8.3-11.2c0-.2,0-.4,0-.5-.5-.4-.9-.9-1.4-1.4l-8.2-11.1c0-.2,0-.4,0-.6-.5-.5-1-.9-1.5-1.4l-8.2-11c0-.2,0-.4,0-.6-.5-.5-1-1-1.5-1.5l-8.1-10.9c0-.2,0-.4,0-.6-.6-.5-1.1-1-1.6-1.6l-8-10.8c0-.2,0-.4,0-.6-.6-.5-1.1-1.1-1.7-1.6l-8-10.7c0-.2,0-.4,0-.7-.6-.5-1.2-1.1-1.7-1.7h0s0,0,0,0c-2.6-2.7-5.1-5.6-9.3-6.3-1.4-.2-3.2.2-4.2-.6-2.7-1.8-5.5-.8-8.1-.8-2.8,0-5.7.5-8.4,1.3-6.1,2-11.3,5.1-15,10.8-1,1.5-1.7,3-2.3,4.5l-.8-5s0,0,.1,0c-.1-.6-.3-1-.4-1.5h0l-9.6-12.8c0,0,0-.1,0-.2h0l-9.5-12.7c0,0,0-.2,0-.3h-.1l-9.4-12.6c0-.1,0-.2,0-.4h-.2l-9.4-12.6c0-.1,0-.3-.1-.4h-.2l-9.3-12.5c0-.2,0-.3-.1-.5h-.3l-9.3-12.4c0-.2,0-.4-.2-.6h-.3l-9.2-12.3c0-.2-.1-.4-.2-.7h-.3l-9.2-12.3c0-.2-.1-.5-.2-.7h-.4l-9.1-12.2c0-.3-.1-.5-.2-.8h-.4l-9-12.1c0-.3-.2-.6-.2-.9h-.4l-9-12c0-.3-.2-.6-.3-1-.2,0-.3,0-.5,0l-8.9-11.9c0-.4-.2-.7-.3-1.1-.2,0-.3,0-.5,0l-8.9-11.9c0-.4-.2-.8-.3-1.1-.2,0-.4,0-.6,0l-8.8-11.8c-.1-.4-.2-.8-.3-1.2-.2,0-.4,0-.6,0l-8.7-11.7c-.1-.5-.2-.9-.3-1.3-.2,0-.4,0-.6,0l-8.7-11.6c-.1-.5-.2-.9-.4-1.4-.2,0-.4,0-.7,0l-8.6-11.5c-.1-.5-.2-1-.4-1.5-.2,0-.5,0-.7,0l-8.6-11.5c-.1-.6-.3-1-.4-1.5-8.1,0-16.1,0-24,0-.1,0-.3.1-.4.2-.1.1-.2.3-.4.6l4.8,6.4c-1.7,2-3.2,4.2-5.3,5.6-3.4,2.4-6.1,5.5-9,8.2,0,0,0,0,0,0l-5.7-7.6c0-.2-.1-.4-.2-.7h-.3l-9.1-12c-.1-.3-.2-.7-.3-1-12.4,0-24.7,0-37,0-.1,0-.3.2-.4.3,0,.1-.2.3-.4.7l6.1,8.1c0,2.4-.2,4.8-.6,7.2l-2.2-3.1c0,0,0-.1.1-.2h-.2l-9.4-13c-7.3,0-14,0-20.6,0-.3,0-.5.3-.8.4,0,.3,0,.7,0,1,.4.2.8.4,1.2.6l5.9,8.3c0,.3-.1.6-.3.9-1.8,3.8-1.4,8-2.8,11.8-.9,2.5-.3,5.5-1.2,8-.9,2.5-.5,5.3-1.8,7.8-.8,1.5.4,3.5-.7,5.3l-33-44h-40.2c-.2.3-.4.7-.6,1l7.5,9.9c0,1-.2,2-.7,2.9-.9,1.8.8,4.1-1.3,5.5-.5,5.7-1.5,11.2-2.9,16.8-.7,2.8,0,6-1.2,8.5-1.3,2.7-.2,5.6-1.7,8.3-.9,1.6-.3,4-1,6-.7,1.8-.2,4-1,6.1-.7,1.8-.7,4-1,6.1-.8,5.9-.2,12,2,17.6.7,1.8,1.5,3.5,2.4,5.2h0s0,0,0,0c.7,1.2,1.5,2.2,2.4,3.3l7.5,10.2c.6.9,1.2,1.7,1.9,2.5l8.1,10.9c.4.6.9,1.2,1.4,1.8l76.6,103.5c-.7.2-1.4.4-2.2.6-1.4.3-2.8.5-4.3.7-.2-.2-.4-.4-.5-.6l-7.6-10.2c-.5-1-1.2-2-2.1-2.8l-7.6-10.3c-.5-1-1.2-1.9-2-2.7l-7.7-10.4c-.5-1-1.1-1.8-1.9-2.6l-7.8-10.5c-.5-.9-1.1-1.8-1.9-2.5l-7.9-10.6c-.5-.9-1.1-1.7-1.8-2.4l-7.9-10.7c-.5-.8-1-1.6-1.7-2.3l-8-10.8c-.4-.8-1-1.5-1.6-2.2l-8.1-10.9c-.4-.7-.9-1.4-1.5-2l-8.2-11c-.4-.7-.9-1.3-1.4-1.9l-8.3-11.2c-.4-.6-.8-1.2-1.3-1.7l-8.4-11.3c-.3-.6-.7-1.1-1.2-1.6l-8.5-11.5c-.3-.5-.7-1-1.1-1.4l-8.7-11.6c-.3-.5-.6-.9-.9-1.3l-8.9-12c-.2-.3-.4-.6-.7-.9l-9-12.1h0c-.6-.9-1.3-1.7-2.1-2.3-4.3-3.2-9.1-5.5-14.7-5.4-2.9,0-5.7.3-8.6.8-3.4.6-6.7,1.7-9.8,3.1-7.6,3.4-13.8,8.5-18.5,15.4-2.5,3.6-4.5,7.4-6.4,11.3l-18.8-24.7c-1.9-3.2-4.9-4.5-8-6-.4,0-.7,0-1.1,0l-24-32.1c-9.2,1.2-17.7,5-26.5,7.2-1.9.5-3.7,1.4-5.9,2.2l8.1,10.6c0,1-.2,2.1-.4,3.2-.5,2.6-1.2,5.3-1.4,8-.1,2.2-.5,4.5-1.2,6.5-.8,2.3-1.3,4.6-1.8,7l-3.8-5.2c0-.1,0-.2-.2-.4h0l-9.4-12.7c0,0,0-.2-.2-.3h0l-9.4-12.7c0,0-.1-.2-.2-.3h-2.2c-5.3,5.3-10.6,10.8-16.1,16.1-3.2,3.1-7,5.2-11.5,5.9-2.6.4-5.2.8-7.9,1.3.2.8.4,1.2.5,1.6l10,13.5c-.1.5-.2,1-.4,1.5-.7,1.9-.3,4-1,5.6-2.1,4.6-2.1,9.7-3.7,14.4-.9,2.5-1.3,5.5-1.8,8.3-.5,3-.9,6-1.6,8.9-1.3,5.5-2.1,11-1.8,15.7.6,1.7,1.3,2.9,2.2,4,0,0,0,0,0,0l3.4,4.6-58.6-76.3c-.4-.7-.8-1.3-1.4-1.9-1.1-1-2-2.2-2.7-2.9-2.3-.5-3.9-1-5.7-1.1-4-.2-7.8,1-11.4,2.6-4.5,2-8.4,4.8-12.1,7.9l-6.8-8.9h0c-.3-.7-.8-1.3-1.8-1.7-.8.3-1.6.7-2.5,1-4.4,1.3-8.9,2.6-13.3,3.9l-4.5-6c-.3-.5-.7-1-1.1-1.5l-8.7-11.7c-.3-.4-.5-.8-.9-1.2l-9-12.1c-.1-.2-.3-.4-.4-.6h0c-1.2-1.5-2.7-2.7-4.7-3.8h-6.6c-4.9,1.4-7.6,3.9-9.5,8.3,0,1.4,0,3.8,0,6.1,0,2,.9,3.9,2.2,5.4l10.2,13.8c-.4.1-.7.2-1.1.3-6.5,1-12.5,3.7-18.9,5-1.5.3-2.9,1.4-4.6,1-.2,0-.5.3-.8.4v2.1l7.2,9c0,.8,0,1.5-.4,2.2-1,2,0,4.4-1.2,6-1.1,1.5-.1,3.2-.7,4.6l-48.2-64.2c-1.1,0-2.2-.3-3.1,0-2.3,1-4.9,1.2-7.1,2.1-6.1,2.4-12.6,3.2-18.6,5.7-1.1.5-2.3.5-3,2l9,12c0,.1-.1.3-.2.4-1.3,1.9,0,4-1.2,5.5-1.4,1.6.1,3.6-1.1,5.3-1.6-.3-3.2-.9-4.9-1-5.7-.4-10.8,1.7-15.9,3.8-4.5,1.9-8.5,4.7-12.1,8.1-1.4,1.3-3.1,2.2-4.5,3.6-1.5,1.5-2.5,3.3-3.9,4.8-3,3.1-5.5,6.6-7.7,10.2l-17.3-22.8c-.3-.4-.6-.8-1-1.2-4-4.6-9.3-5.9-14.8-6.4-2.8-.3-5.7.3-8.6.7-4.9.7-9.3,2.4-13.6,4.7-4.9,2.5-11.5,9-15.1,14-1.8,2.5-3.4,4.9-4.8,7.6l-14.4-19.2c-.2-.3-.5-.6-.7-1h0s0,0,0,0c-1.7-2.1-4.1-3.7-7.1-4.8-1.9-.7-3.9-1.7-6.1-1.1-5.6-2.5-11.2-.9-16.5.4-5.9,1.5-11.3,4.6-14.6,10.3-2.9,5-4.1,8.9-3.6,14.1h0c0-.1,0-.2,0-.3,0,0,0,0-.1,0l-9.5-12.9s0,0,0-.1c0,0,0,0,0,0l-9.6-13c-2.7.9-5.1,1.6-7.3,2.6-3.4,1.7-6.3,2.5-10,0-2.8-1.9-6.7-3.3-10-1.9-1.9.8-3.9.3-5.8,1l-7.2-9.7c0-.1,0-.3,0-.4-.6-.7-1.2-1.4-1.8-2.1l-7.8-10.5c0-.1,0-.3,0-.4-.6-.7-1.2-1.4-1.8-2.1l-7.8-10.5c0-.1,0-.3,0-.4-.6-.7-1.2-1.4-1.8-2.1l-7.8-10.5c0-.1,0-.3,0-.4-.6-.7-1.2-1.4-1.8-2.1l-7.8-10.5c0-.1,0-.3,0-.4-.6-.7-1.2-1.4-1.8-2.1l-7.8-10.5c0-.1,0-.3,0-.4-.6-.7-1.2-1.4-1.9-2.1l-7.8-10.5c0-.1,0-.3,0-.4-.6-.7-1.2-1.4-1.9-2.1l-7.8-10.5c0-.1,0-.3,0-.4-.6-.7-1.2-1.4-1.9-2.1l-7.8-10.5c0-.1,0-.3,0-.4-.6-.7-1.2-1.4-1.9-2.1l-7.8-10.5c0-.1,0-.3,0-.4-.6-.7-1.2-1.4-1.9-2.1l-7.8-10.5c0-.1,0-.3,0-.4-.6-.7-1.2-1.4-1.9-2.1l-7.8-10.5c0-.1,0-.3,0-.4-.6-.7-1.2-1.4-1.9-2.1l-7.8-10.5c0-.1,0-.3,0-.4-.6-.7-1.2-1.4-1.9-2.1l-7.8-10.5c0-.1,0-.3,0-.4-.6-.7-1.2-1.4-1.9-2.1l-7.8-10.5c0-.1,0-.3,0-.4-1.7-1.9-3.6-4.1-5.2-5.9-2.2-.4-3.8-1-5.5-1.1-4-.2-7.7,1.2-11.4,2.6-3.2,1.3-7.6,4.4-11.5,7.5l-7.1-9.4-.3.5c-.3-.5-.8-1-1.6-1.3-.8.3-1.7.7-2.6,1-4.4,1.3-8.9,2.6-13.3,3.9l-4-5.4c-.5-1.1-1.2-2-2-2.8l-7.8-10.6c-.4-.7-.9-1.4-1.5-2l-8.8-11.9c-.1-.2-.2-.3-.4-.5h0c0,0,0,0,0,0-2.3-2.8-6.3-4.2-12-3.5-3.2,1.9-6.6,2.9-8,6.6-1.3,3.5-2.2,7.1-.7,9.8.4.8.9,1.5,1.3,2.2h0c.4.6.8,1.2,1.2,1.7h0s9.6,12.9,9.6,12.9c-1.8.6-3.7,1.2-5.5,1.7-4.8,1.4-9.5,2.7-14.3,4-1.5.4-2.9,1.5-4.6,1-.2,0-.5.3-.8.5,0,.7,0,1.3,0,2.1l6.9,10c-.2,1.2-.6,2.6-.9,3.9l-14-20.4-.7.2c-1-2-2.8-3.3-4.7-4.2-5.2-.7-9.6-.2-12.6,4.7,0,0,.2.6,0,1-1.4,3.1-1.3,6,0,9.2,1.2,3.2,1.8,6.6,3.1,9.7,1.7,4,.9,7.7-.8,11.4-.8,1.8-1.8,3.5-2.8,5.1l-26.5-35.3c-.4-.7-.9-1.3-1.4-1.9h0s0,0,0,0c-.9-1-1.9-1.9-2.8-2.8-1.8-.5-3.2-1.1-4.5-1.3-1.2-.1-2.3,0-3.4.1l-24.1-32.1c-1.1,0-2.2-.3-3,0-2.3,1-4.9,1.2-7.1,2.1-3.2,1.3-6.6,2.1-10,3h0s0,0,0,0c-2.9.8-5.8,1.5-8.6,2.7-1.1.5-2.4.3-2.8,1.7l7.6,9.7c-.1,2.8-.4,5.7-1.1,8.4-1.1,3.9-1.8,7.9-2.5,11.9-.8,4.2-1.5,8.5-2.4,12.6-.7,3-1.3,6-2,9l-5.1-6.9c-.5-1-1.2-2-2-2.8-.1-.2-.3-.3-.4-.5l-7.6-10.3c-.5-.8-1-1.5-1.6-2.2-4.1-4.5-9.3-5.6-14.9-6.5-4-.6-7.7,1.1-11.6,1-1.1,1.8-3,.7-4.5,1.3-3.3,1.3-6.7,3.3-9.9,5.8l-5.7-7.7c0,0,0-.1.1-.2h-.2l-9.5-12.9s0,0,0,0h-.1l-9.6-13h-23.7c-.7.5-1.2.9-1.7,1.4l4.8,6.4c-3.9,3.3-7.3,6.9-11.1,10.2-1,.9-2,1.8-3,2.6l-5-6.6c-.2-.5-.3-.8-.4-1.2h-.5l-8.7-11.5-7.5,3.3c.5-.5,1-1,1.5-1.5,2.2-.7,4-1.2,6-1.9-.2-.7-.4-1.1-.5-1.5-12.8,0-25.4,0-38.1,0-.1,0-.3.2-.4.3,0,.1-.1.3-.3.7,2,1.4,4.2,2.8,6.2,4.1-.2,2.1.5,3.7.2,5.6-.3,2-.9,4-1.2,6.1-.4,3-.2,6.2-1.2,9-.8,2.3,0,5-1.1,6.5-1.7,2.3,0,4.7-1.4,7-1.2,2-.8,4.9-1.4,7.4-.6,2.6-.7,5.4-1.3,8-1,4.1-1.6,8.3-2.6,12.4-.6,2.6-.2,5.6-1.2,8-1.7,4.3-1.4,9-2.8,13.3-.7,1.9-.5,4.1-1.1,6-.4,1.3-1,2.6-1.5,3.7l-50.8-68.1h0c-1-1.3-2.4-2.4-4.4-3.1-.6-.2-1.1-.5-2-.9-3.5-.5-7.4-.1-11,1.4-6.4,2.7-12.3,6.4-17.3,11.2-.3.3-.7.7-1,1l-7.4-9.9s0,0,0,0c-.4-.5-.8-1-1.5-1.3-2.3-1.1-4.7-2.4-7.5-2.5-7-.2-12.8,3.2-18.2,6.6-1.7,1.1-3.4,2.3-5.1,3.5l-6.2-8.6h0c-.3-.7-.9-1.2-1.8-1.4-1,.4-1.8.7-2.7,1-3.2.9-6.3,1.9-9.5,2.8l-7.2-9.8c-.6-1.4-1.3-2.3-2.2-3l-7.7-10.5c-.5-.9-1-1.6-1.6-2.2l-8.4-11.5c-.2-.4-.5-.7-.7-1h0s0,0,0,0c-1.1-1.3-2.5-1.9-4-2.5-3-1.2-5.2.7-7.8.9-1.3,1.3-2.6,2.6-3.9,3.9-1.8,4.2-1.3,8.3-1.3,12.3,0,5.1-.1,10.3,0,15.4,0,1.2.1,2.4.2,3.6l-19-25.3h-38.2c0,.6,0,.9,0,.9,2.5,1.7,4.8,3.4,7.1,5-.1,2.1.2,4.1-.5,5.6-.6,1.3-.4,2.5-.6,3.8-.3,1.2-.8,2.4-1,3.6-.4,3-.3,6.2-1.1,9-1.5,5-1.6,10.3-3,15.2-.7,2.5-.4,5.1-1.2,7.5-.9,2.5-1.1,5.2-1.6,7.8-.5,2.6-.4,5.5-1.3,8-1.3,3.9-1.5,8-2.7,11.8-.8,2.5-.3,5.5-1.2,8-.9,2.5-1.3,5.2-1.7,7.7-.6,4-2.7,6.2-6,7.8-1.4.7-2.8,1.5-5.3,2.8l9.7,13s0,0,0,0h0l9.7,12.9s0,0-.1,0h.2l9.7,12.9c0,0-.1,0-.2.1h.3l9.7,12.9c0,0-.2,0-.3.1h.4l9.6,12.8c-.1,0-.2.1-.3.2h.5l9.6,12.8c-.1,0-.3.1-.4.2h.6l9.6,12.7c-.2,0-.3.2-.5.3h.7l.8,1.1c-4.1,1.2-8.2,2.4-12.5,3.4,1.5,3.5,5,3.4,7.1,5,.6,1.2,1.2,2.3,1.6,3.5.3,1,1,2.5.6,3.2-.9,1.5-.6,3.1-.9,4.6-.6,2.8-1.4,5.6-2.2,8.5-1.4-.5-2.4-1-3.5-1.1-.7,0-1.3-.1-2-.2l-5.2-7.1c-.6-1.2-1.4-2.3-2.4-3.3l-7.4-10c-.6-1-1.3-2-2.1-2.8l-7.7-10.4c-.5-.9-1.1-1.7-1.8-2.4l-8.1-10.9c-.4-.6-.8-1.2-1.3-1.8l-8.7-11.7c-.2-.3-.4-.6-.7-.9l-95.8-129.5h-.5c-1.4-2-3.5-3.5-5.9-4.6-3.3-1.5-7.1-2.6-11-2.4-2.7.1-5.4.5-8.1.8-5.6.7-10.3,3.3-14.9,6.1h-26s0,0,0,0c-.4-2.1-1.5-3.2-4-4.9h0s0,0,0,0c-.9-.6-1.9-1.2-3.2-2-1.5,0-3-.2-4.5,0-1.7.3-3.6.5-4.8,1.4-3.3,2.7-7.1,4.6-9.8,8.3l-7.3-9.8c-.9,0-1.4-.1-1.9,0-5.3,1.7-10.5,3.5-15.8,5.2-2.9,1-5.9,1.9-8.9,2.7-1.4.4-2.3,1-2.4,2.5l7.3,10.1c-.7,3.1-1.3,6.3-2,9.4l-5.8-7.7c-.8-1.7-1.9-3.1-3.2-4.2l-6.3-8.3c-1.5-3.8-4.7-6-8.1-7.6-2.5-1.1-5.4-1.6-8.1-2-4.6-.7-9.1.2-13.4,1.3-6.5,1.5-15.2,6.7-19.6,11.6-4.9,5.4-9.1,11.2-11.7,18.1,0,0,0,.2-.1.3-.6-.7-1.3-1.5-1.9-2.2l-6.3-8.5c0-.2,0-.4,0-.6-.9-1.1-1.9-2.2-2.9-3.3l-6.8-9.2c0-.2,0-.3,0-.5-1.6-1.8-3.4-3.9-4.9-5.6-1.7-.6-3.4-1-5-1.2l-4.7-6.3c0,0,0-.2,0-.2,0,0-.1,0-.2,0l-9.5-12.9s0,0,0-.1c0,0,0,0-.1,0l-9.6-13s0,0,0,0c-3.1.6-5.6.8-8,1.6-7.1,2.7-14.6,4.1-21.7,6.7-.9.3-1.7.9-2.8,1.5l8.1,10.6c-.3,3-.9,5.9-1.7,8.9-.7,2.8-1.2,5.9-1.6,8.9-.3,2.2-.7,4.4-1.2,6.6l-13.9-18.1c0,0,0-.2-.2-.3h0l-9.3-12.1-.9,1.4c0-.3,0-.5,0-.8,0-.5,1.3-.6.5-1.4h-2.2c-5.3,5.3-10.6,10.8-16.1,16.1-3.2,3.1-7,5.2-11.5,5.9-2.6.4-5.2.8-7.9,1.3.2.8.4,1.2.5,1.7h.7l8.9,12.7c0,0,0,.2,0,.2h0l.2.3c-.1.5-.2,1.1-.4,1.5-.8,1.9-.3,4-1,5.6-2.1,4.6-2.1,9.7-3.7,14.4,0,.3-.2.6-.3.9l-3.2-4.2c0-.1-.2-.3-.3-.4l-8.8-11.8c-.3-.5-.7-1-1.1-1.5l-8.4-11.3c-.4-.7-.9-1.4-1.5-2l-8.1-10.8c-.5-.9-1.2-1.8-1.9-2.5l-7.7-10.3c-.6-1.1-1.3-2-2.1-2.8l-7.4-9.9h0c-1.5-2.8-3.6-4.6-6.4-6.1-2.5.7-5.4-.4-8.6.7-3.9,1.3-5.1,4.5-7.4,6.9v8.4c.3.6.5,1.2.9,1.8h0s0,.1,0,.1c.5.8,1,1.5,1.6,2.2l9.8,13.5c-.4.1-.8.2-1.2.3-1.9.3-3.8.8-5.7,1.3l-21.8-29h-38.6v.9h-.5c0-.1.5.4.5.4v.3c0,0,.1,0,.2,0l6.5,8.1c-.1.6-.4,1.2-.8,1.8,0,.1,0,.3,0,.5,0,1.9,0,3.7-.9,5.6-.7,1.8.3,4.2-1.1,6,0,3.3-.6,6.5-1.3,9.7l-25.1-33.6c-12.8,0-25.4,0-38.1,0-.1,0-.3.2-.4.3-.1.1-.2.3-.4.6,2.4,1.8,4.9,3.6,7.3,5.3-.4,3.9-.2,7.6-1.3,10.9-1.5,4.4-2,8.9-2.6,13.3-.7,4.9-2.7,9.6-2.2,14.6-2.1,2-.5,4.9-1.8,7.3-1.1,2.1-.4,5.1-1.3,7.4-.9,2.2-.2,4.6-1,6.6-1.6,3.8-1.2,8-2.8,11.8-.8,2-.8,4.4-1.1,6.5-.3,2.4-.4,4.8-1.1,7.1-1.1,3.7-1.5,7.9-5.8,9.7-1.8.9-3.5,1.7-5.9,2.9l9.7,13s0,0,0,0c0,0,0,0,0,0l9.7,13s0,0,0,0c0,0,0,0,0,0l9.7,13s0,0,0,0c0,0,0,0,0,0l9.7,13s0,0,0,0c0,0,0,0,0,0l9.7,12.9s0,0,0,0c0,0,0,0,.1,0l9.6,12.9s0,0,0,0c0,0,0,0,.1,0l9.6,12.9s0,0-.1,0c0,0,.1,0,.2,0l9.6,12.9s0,0-.1,0c0,0,.1,0,.2,0l9.6,12.9s0,0-.1,0c0,0,.1,0,.2,0l2.4,3.2c-1,.3-2,.5-3,.8-5.3,1.4-9.5,4.6-13.7,7.8-.3.3-.7.5-1,.8l-6.2-8.3c0,0,0-.1,0-.2-.2-.2-.5-.5-.7-.7-.4-.4-.8-.7-1.2-1.2-.6.4-1.3,1.2-1.9,1.1-1.7-.3-3.1.6-4.6,1.1-1.6.5-3.3.9-4.8,1.7-.2.1-.5.2-.8.2l-27.4-36.5c-.3-.5-.6-.9-1-1.3h0c0,0,0,0,0,0-.9-1-2.2-1.9-3.6-2.5-2.1-.8-3.9-.9-5.8.4-.4.3-1.3,0-2,0-1.8,2.1-3.6,4.1-5.3,6,0,10.1,0,20,0,29.8l-19.2-25.6h-37.6l.6.8c-.6.1-1.3.3-2.1.5,3,1.6,6,1.5,7.7,4.8-.4,3.9-.3,8.4-1.4,12.5-.6,2.4,0,4.9-1.2,7-.9,1.5,0,3-.7,4.2-.6,1.3-.8,2.7-1,4.1-.6,4.5-1.4,9.1-2.1,13.6-.2.9-.7,1.7-.8,2.6-.4,2.7-.1,5.6-1.2,8-1.1,2.4-.8,4.9-1.7,7.3-.9,2.3-.7,5-1.2,7.5-.4,2.2-.6,4.5-1.2,6.5-1.4,4.5-1.8,9.2-2.6,13.9-.4,2.4-1.6,4.4-2.7,6.4-.8,1.4-2.6,2.2-4.5,2.2-.7,0-1.5.5-2.1,1-.4.4-.7,1-1.1,1.7l9.7,13s0,0,0,0h0l9.7,12.9s0,0,0,0h0l9.6,12.9s0,0,0,0h.1l9.6,12.9s0,0,0,.1h.1l9.6,12.9s0,0,0,.1h.2l9.6,12.8c0,0,0,.1,0,.2h.2l9.6,12.8c0,0,0,.1,0,.2h.2l9.5,12.8c0,0,0,.1-.1.2h.3l9.5,12.8c0,0,0,.2-.1.2h.3l5.1,6.8c-.5.3-1.1.6-1.6.9l-28.5-37.9c-11.3,2.4-21.7,6.1-32.4,8.8l.2.9h0c.4.8.9,1.3,1.5,1.5l6,7.9c-.3.6-.5,1.1-.5,1.6.2,5-1.5,9.8-2.3,14.6-.9,5.3-1.8,10.7-3.5,15.9-1,3.2-1.5,6.7-2,10.1,0,.4-.1.9-.2,1.3l-41.9-56h-38.9v1.4c2.1,1,4,1.9,6.2,3,.2,1.9.5,4,.7,6,.2,2.3-1.7,4.2-1,6.6-1.8,5.1-1.7,10.5-3,15.7-.6,2.5-1.2,5-1,7.6-2.3,1.5-.4,4.2-1.8,6.3-1.1,1.5-.2,4.3-1.1,6.5-.8,2-.7,4.4-1.1,6.5-.5,2.5-.5,5.2-1.2,7.5-.8,2.4-.7,4.9-1.6,7.3-.9,2.3-.7,5-1.2,7.5-.4,2.2-.7,4.4-1.2,6.5-.7,3-1.3,6.1-2,9.1-1.1,1.1-2,2.3-3.2,3.1-1,.7-2.3.9-3.4,1.5-1.1.6-2.1,1.4-3.6,2.4l9.7,13s0,0,0,0h0l9.7,13s0,0,0,0h0l9.7,13s0,0,0,0h0l9.7,12.9s0,0,0,0h.1l9.7,12.9s0,0,0,0h.1l9.6,12.9s0,0-.1,0h.2l9.6,12.9s0,0-.1,0h.2l9.6,12.9c0,0,0,0-.1,0h.2l9.6,12.9c0,0-.1,0-.2.1h.2l9.6,12.9c0,0-.1,0-.2.1h.3l9.6,12.9c0,0-.1,0-.2.1h.3l9.6,12.8c0,0-.1,0-.2.1h.3l9.6,12.8c0,0-.2.1-.2.2h.4l1.7,2.3h-125.4v3.7l140.6,189.1c-.7,0-1.4,0-2.1,0-13.4.2-26.7-1-39.8,1-1.2.7-2.2,1.5-3.4,1.9-2,.7-3.4,2.2-4.2,3.8-1.7,3.3-3.1,6.8-3.1,10.7,0,17.3,0,34.6,0,52,0,3.1.1,6,.9,9.1.4,1.8,1.1,3.5,1.9,4.9h0s0,0,0,0c.5.9,1.1,1.7,1.8,2.5l7.8,10.5c.5.9,1.1,1.7,1.8,2.5l7.8,10.5c.5.9,1.1,1.7,1.8,2.5l7.8,10.5c.5.9,1.1,1.7,1.8,2.5l7.8,10.5c.5.9,1.1,1.7,1.8,2.5l7.8,10.5c.5.9,1.1,1.7,1.8,2.5l7.8,10.5c.5.9,1.1,1.7,1.8,2.5l7.8,10.5c.5.9,1.1,1.7,1.8,2.4l7.8,10.5c.5.9,1.1,1.7,1.8,2.4l7.8,10.6c.5.9,1.1,1.7,1.8,2.4l7.8,10.6c.5.9,1.1,1.7,1.8,2.4l7.9,10.6c.5.9,1.1,1.7,1.8,2.4l7.9,10.6c.5.9,1.1,1.7,1.8,2.4l7.9,10.6c.5.9,1.1,1.7,1.8,2.4l7.9,10.6c.5.9,1.1,1.7,1.8,2.4l7.9,10.6c.5.9,1.1,1.7,1.8,2.4l7.9,10.6c.5.9,1.1,1.7,1.8,2.4l7.9,10.6c.5.9,1.1,1.7,1.8,2.4l7.9,10.6c.5.9,1.1,1.7,1.8,2.4l7.9,10.6c.5.9,1.1,1.7,1.8,2.4h0s0,0,0,0c.6.7,1.3,1.3,2.1,1.9h2629.4v-544.9l-1.4-1.9Z"/>
      <g>
        <path class="cls-6" d="M2204.8,356.8l-.4.8c0-.1,0-.3,0-.4,0-.2.2-.3.4-.4Z"/>
        <path d="M2204.8,356.8c-.2.1-.4.3-.4.4,0,.1,0,.3,0,.4l.4-.8h0Z"/>
      </g>
      <path class="cls-22" d="M1170.5,155.7l7.5-3.3c-2,.6-3.9,1.2-6,1.9-.5.5-.9.9-1.5,1.5Z"/>
      <g>
        <path class="cls-6" d="M2204.8,356.8l-.4.8c0-.1,0-.3,0-.4,0-.2.2-.3.4-.4Z"/>
        <path d="M2204.8,356.8c-.2.1-.4.3-.4.4,0,.1,0,.3,0,.4l.4-.8h0Z"/>
      </g>
      <path class="cls-22" d="M1170.5,155.7l7.5-3.3c-2,.6-3.9,1.2-6,1.9-.5.5-.9.9-1.5,1.5Z"/>
      <path class="cls-18" d="M1642.5,311.8c-8.5,8.5-8.4,35.8-8.4,35.8h0s.2-27.2-8.4-35.8-35.8-8.4-35.8-8.4h0s27.2.2,35.8-8.4c8.5-8.5,8.4-35.8,8.4-35.8h0s-.2,27.2,8.4,35.8c8.5,8.5,35.8,8.4,35.8,8.4h0s-27.2-.2-35.8,8.4Z"/>
      <path class="cls-18" d="M127.3,1009.6c-8.5,8.5-8.4,35.8-8.4,35.8h0s.2-27.2-8.4-35.8-35.8-8.4-35.8-8.4h0s27.2.2,35.8-8.4c8.5-8.5,8.4-35.8,8.4-35.8h0s-.2,27.2,8.4,35.8c8.5,8.5,35.8,8.4,35.8,8.4h0s-27.2-.2-35.8,8.4Z"/>
      <path class="cls-13" d="M2806.2,52c-13.9,0-27.3,2.3-39.8,6.4,8.7-2.2,17.8-3.4,27.2-3.4,61.3,0,110.9,49.7,110.9,110.9s-49.7,110.9-110.9,110.9-110.9-49.7-110.9-110.9,1.2-18.5,3.4-27.2c-4.2,12.5-6.4,25.9-6.4,39.8,0,69.9,56.7,126.7,126.7,126.7s126.7-56.7,126.7-126.7-56.7-126.7-126.7-126.7Z"/>
      <g>
        <rect class="cls-21" x="1882.3" y="176.8" width="4.1" height="70.8"/>
        <rect class="cls-3" x="1863.7" y="210.2" width="41.4" height="4.1"/>
      </g>
      <g>
        <rect class="cls-9" x="244.2" y="1171.9" width="4.1" height="70.8"/>
        <rect class="cls-8" x="225.5" y="1205.3" width="41.4" height="4.1"/>
      </g>
      <g>
        <rect class="cls-10" x="2684.2" y="695.2" width="4.1" height="70.8"/>
        <rect class="cls-19" x="2665.5" y="728.5" width="41.4" height="4.1"/>
      </g>
      <g>
        <rect class="cls-15" x="2759.1" y="263.4" width="4.1" height="70.8"/>
        <rect class="cls-11" x="2740.5" y="296.7" width="41.4" height="4.1"/>
      </g>
      <path class="cls-18" d="M2186.8,912.4c-6.7,6.7-6.6,28.1-6.6,28.1h0s.1-21.4-6.6-28.1c-6.7-6.7-28.1-6.6-28.1-6.6h0s21.4.1,28.1-6.6c6.7-6.7,6.6-28.1,6.6-28.1h0s-.1,21.4,6.6,28.1c6.7,6.7,28.1,6.6,28.1,6.6h0s-21.4-.1-28.1,6.6Z"/>
      <path class="cls-18" d="M1066,1212.7c-4.7,4.7-4.6,19.8-4.6,19.8h0s0-15.1-4.6-19.8-19.8-4.6-19.8-4.6h0s15.1,0,19.8-4.6c4.7-4.7,4.6-19.8,4.6-19.8h0s0,15.1,4.6,19.8c4.7,4.7,19.8,4.6,19.8,4.6h0s-15.1,0-19.8,4.6Z"/>
      <g>
        <rect class="cls-16" x="1138.6" y="481.2" width="4.1" height="70.8"/>
        <rect class="cls-4" x="1120" y="514.5" width="41.4" height="4.1"/>
      </g>
      <g>
        <rect class="cls-17" x="695.8" y="988.7" width="4.1" height="70.8"/>
        <rect class="cls-5" x="677.2" y="1022.1" width="41.4" height="4.1"/>
      </g>
      <g>
        <rect class="cls-2" x="132.5" y="270.5" width="2.6" height="44.6"/>
        <rect class="cls-12" x="120.8" y="291.5" width="26.1" height="2.6"/>
      </g>
      <g>
        <rect class="cls-1" x="2940.2" y="111.9" width="1.6" height="28"/>
        <rect class="cls-20" x="2932.9" y="125" width="16.4" height="1.6"/>
      </g>
      <g>
        <rect class="cls-14" x="2021.4" y="913.8" width="3.3" height="56.7"/>
        <rect class="cls-23" x="2006.4" y="940.6" width="33.2" height="3.3"/>
      </g>
      <path class="cls-7" d="M1170.5,155.7l7.5-3.3c-2,.6-3.9,1.2-6,1.9-.5.5-.9.9-1.5,1.5Z"/>
      <path class="cls-18" d="M2599.3,1130s1.4,7.6,4.1,13.4,10.2,16.1,9.6,25.7c-.5,9.6-.3,19.5,5.4,25.4,5.8,5.9,11,19.1,3.9,35.2-7.1,16.1-8.5,21.7-8.6,25.7s-4.4,6.9-10.8,20.8c-6.4,13.9-20.1,53.3,11.7,73.8h115.8s23.4-8.1,23.4-43.5-9-46-2.7-59.9c6.3-13.9,21.3-18.1,17.1-29.3s-35,13.2-35,39.8,6.6,49.9-6.3,60.1c4.4-17.9,2.5-37.6-10.5-56-13-18.4-5.1-23.7-13.5-33.3-8.5-9.6-.3-16.1-6.8-28.8-6.4-12.7,1.5-14,1.5-29.4s-15.9-24.5-18.8-36c-2.9-11.5-4.2-20.3-11.3-27.9-6.8,9.5-11.3,29.8-11.3,29.8,0,0-14,.3-21,4.7-6.9,4.4-18.1-3-24-6.9-5.9-3.9-11.7-3.2-11.7-3.2Z"/>
      <g>
        <path class="cls-18" d="M2511.7,1299.4c-4.2,0-7.2,1.1-9,2,0-2.2.2-4.6.2-7h-73.9c0,29.5,7.1,41.9,18.3,51.8v3.8h37.3v-3.8c3.6-3.2,6.8-6.7,9.5-10.9,6.4-3.6,11.3-5.3,17.5-7.6,7.5-2.8,12.2-8.6,12.2-15.6s-4.7-12.6-12.1-12.6ZM2499,1324.8c1.4-4.2,2.4-9,3.1-14.6,4.9-6.4,15.2-8.7,15.2,1.3s-13,12.7-18.3,13.3Z"/>
        <path class="cls-18" d="M2466.5,1194.4s-.2,4-2.8,8c-2.9,4.5-3.1,14.4,1.3,21.2s3.5,11.5,1.9,15.6c-1.5,4,.6,9.8.6,9.8,0,0-.1-6.1,2.4-10.5s5.3-11.8,2.1-16.8-7.4-12-5.9-17.3c1.5-5.3,1.8-7,.3-10Z"/>
        <path class="cls-18" d="M2454.3,1240.2s3.7,3.5,3.7,8.8-1.8,7.7-1.8,13.9,1.2,9.7,1.2,9.7c0,0-5.4-3.3-5.4-11.7s4.9-11.3,2.4-20.6Z"/>
        <path class="cls-18" d="M2476.9,1254.4s2.6,4.3,2.6,10.3-3.8,11.5-4.5,15.7c-.7,4.2.6,7.2.6,7.2,0,0-5.4-4.9-3.9-12.9s5.5-7.5,5.2-20.2Z"/>
      </g>
    </g>
  </g>
</svg>